<svg width="74" height="74" viewBox="0 0 74 74" fill="none" xmlns="http://www.w3.org/2000/svg">
<circle cx="37" cy="37" r="36.5" stroke="#393939"/>
<path d="M45.2987 48.2499C45.1132 49.0573 44.3083 49.5615 43.5009 49.376L27.8175 45.7734C26.5151 45.4743 26.2245 43.7497 27.357 43.0403L30.6441 40.9813C31.3461 40.5415 31.5588 39.6159 31.119 38.9138L28.4647 34.6765C28.0249 33.9745 28.2376 33.0488 28.9396 32.609L36.5668 27.8313C37.2688 27.3916 38.1945 27.6042 38.6343 28.3063L41.2885 32.5436C41.7283 33.2456 42.654 33.4583 43.356 33.0185L46.6431 30.9595C47.7756 30.2501 49.2004 31.264 48.9013 32.5665L45.2987 48.2499Z" fill="#393939"/>
</svg>
