<svg width="38" height="38" viewBox="0 0 38 38" fill="none" xmlns="http://www.w3.org/2000/svg">
<circle cx="18" cy="18" r="18.25" transform="matrix(1 0 0 -1 1 37)" stroke="#393939" stroke-width="0.5"/>
<path d="M23.1493 13.375C23.0566 12.9713 22.6542 12.7193 22.2505 12.812L14.4088 14.6133C13.7575 14.7629 13.6123 15.6251 14.1785 15.9798L15.822 17.0093C16.1731 17.2292 16.2794 17.6921 16.0595 18.0431L14.7324 20.1617C14.5125 20.5128 14.6188 20.9756 14.9698 21.1955L18.7834 23.5843C19.1344 23.8042 19.5972 23.6979 19.8171 23.3469L21.1443 21.2282C21.3642 20.8772 21.827 20.7709 22.178 20.9908L23.8215 22.0203C24.3878 22.375 25.1002 21.868 24.9506 21.2168L23.1493 13.375Z" fill="#393939"/>
</svg>
