<svg xmlns="http://www.w3.org/2000/svg" aria-hidden="true" style="position:absolute;width:0;height:0;overflow:hidden">
  <defs>
    <symbol id="icon-arrow" viewBox="0 0 32 32">
      <path d="M29.586 17.414a2 2 0 0 0 0-2.829L19.415 4.413c-1.26-1.26-3.414-.368-3.414 1.414v2.172a2 2 0 0 1-2 2h-4a2 2 0 0 0-2 2v8a2 2 0 0 0 2 2h4a2 2 0 0 1 2 2v2.172c0 1.782 2.154 2.674 3.414 1.414l10.171-10.171z"/>
    </symbol>

    <symbol id="icon-burger" viewBox="0 0 32 32">
      <path stroke-linecap="round" stroke-linejoin="round" stroke-width="3.2" d="M4 16h24M4 8h24M4 24h24"/>
    </symbol>

    <symbol id="icon-close" viewBox="0 0 32 32">
      <path d="M19.141 16.002 30.017 5.127a2.22 2.22 0 0 0-3.142-3.142L15.999 12.86 5.124 1.985a2.222 2.222 0 1 0-3.142 3.142l10.875 10.875-10.9 10.9a2.223 2.223 0 0 0 .335 3.42c.366.244.796.374 1.236.373.569 0 1.138-.217 1.572-.651l10.9-10.9 10.875 10.875a2.215 2.215 0 0 0 2.805.276 2.227 2.227 0 0 0 .945-2.281 2.217 2.217 0 0 0-.608-1.138L19.141 16.001z"/>
    </symbol>
  </defs>
</svg>